<svg id="elBoasXvNe51" xmlns="http://www.w3.org/2000/svg" xmlns:xlink="http://www.w3.org/1999/xlink" viewBox="0 0 16 16" shape-rendering="geometricPrecision" text-rendering="geometricPrecision"><line x1="-3.022247" y1="-2.372535" x2="3.022247" y2="2.372534" transform="translate(11.022247 4.372535)" fill="none" stroke="#8da5f3" stroke-width="2" stroke-linecap="round"/><line x1="1.219347" y1="3.627465" x2="-1.219347" y2="-3.627465" transform="translate(3.219347 10.372535)" fill="none" stroke="#8da5f3" stroke-width="2" stroke-linecap="round"/><line x1="-3" y1="2.372535" x2="3" y2="-2.372535" transform="translate(5 4.372535)" fill="none" stroke="#8da5f3" stroke-width="2" stroke-linecap="round"/><line x1="-1.780653" y1="0" x2="1.780653" y2="0" transform="translate(6.219347 14)" fill="none" stroke="#8da5f3" stroke-width="2" stroke-linecap="round"/><line x1="0" y1="3" x2="0" y2="-3" transform="translate(8 11)" fill="none" stroke="#8da5f3" stroke-width="2" stroke-linecap="round"/><line x1="3.022247" y1="-0.627465" x2="-3.022247" y2="0.627465" transform="matrix(.999968 0 0 1 11.022247 7.372535)" fill="none" stroke="#8da5f3" stroke-width="2" stroke-linecap="round"/><polygon points="0,-3.045261 2.637274,1.522631 -2.637274,1.522631 0,-3.045261" transform="matrix(1.882486 0 0 0.864246 8 5.849904)" fill="#8da5f3" stroke-width="0"/><rect width="4.375357" height="6.105776" rx="0" ry="0" transform="matrix(1.26936 0 0 1 3.219347 7)" fill="#8da5f3" stroke-width="0"/></svg>
